<svg width="360" height="400" viewBox="0 0 360 400" fill="none" xmlns="http://www.w3.org/2000/svg">
<path d="M332.448 122.696C332.665 121.409 332.596 120.09 332.248 118.833C331.899 117.575 331.279 116.409 330.43 115.417C329.582 114.426 328.526 113.632 327.338 113.093C326.149 112.553 324.857 112.281 323.552 112.296C323.061 112.298 322.572 112.341 322.088 112.424C321.054 110.699 319.538 109.314 317.726 108.44C315.914 107.567 313.886 107.243 311.892 107.51C309.899 107.776 308.027 108.621 306.507 109.939C304.988 111.257 303.888 112.992 303.344 114.928C302.701 114.731 302.032 114.632 301.36 114.632C299.586 114.632 297.885 115.337 296.631 116.591C295.377 117.845 294.672 119.546 294.672 121.32C294.674 121.793 294.725 122.265 294.824 122.728L332.448 122.696Z" fill="#F0F0F0"/>
<path d="M97 87.088C97.1327 86.2948 97.2023 85.4923 97.208 84.688C97.208 80.574 95.5737 76.6284 92.6647 73.7194C89.7556 70.8103 85.8101 69.176 81.696 69.176C80.854 69.1817 80.0138 69.2566 79.184 69.4C77.4098 66.4358 74.8063 64.056 71.6951 62.5545C68.5838 61.053 65.101 60.4954 61.6765 60.9505C58.252 61.4057 55.0357 62.8538 52.4247 65.1159C49.8137 67.378 47.9224 70.3552 46.984 73.68C45.0653 73.0787 43.0223 72.9918 41.0594 73.4282C39.0966 73.8646 37.2828 74.8089 35.7996 76.1665C34.3163 77.5242 33.2157 79.2476 32.6079 81.1643C32.0001 83.081 31.9063 85.1237 32.336 87.088H97Z" fill="#F0F0F0"/>
<path d="M381 305.92H-19V306.12H381V305.92Z" fill="#EBEBEB"/>
<path d="M340.92 318.792H314.424V318.992H340.92V318.792Z" fill="#EBEBEB"/>
<path d="M245.976 320.968H239.024V321.168H245.976V320.968Z" fill="#EBEBEB"/>
<path d="M313.624 311.368H298.272V311.568H313.624V311.368Z" fill="#EBEBEB"/>
<path d="M57.52 312.712H22.968V312.912H57.52V312.712Z" fill="#EBEBEB"/>
<path d="M69.712 312.712H64.6479V312.912H69.712V312.712Z" fill="#EBEBEB"/>
<path d="M161.12 316.088H86.176V316.288H161.12V316.088Z" fill="#EBEBEB"/>
<path d="M170.6 270.24H16.128C14.9179 270.238 13.758 269.756 12.9031 268.899C12.0482 268.043 11.568 266.882 11.568 265.672V48.528C11.5785 47.3248 12.0633 46.1744 12.9171 45.3266C13.7709 44.4788 14.9248 44.0021 16.128 44H170.6C171.812 44 172.973 44.4813 173.83 45.3379C174.687 46.1946 175.168 47.3565 175.168 48.568V265.672C175.168 266.884 174.687 268.045 173.83 268.902C172.973 269.759 171.812 270.24 170.6 270.24ZM16.128 44.16C14.9709 44.1621 13.862 44.6233 13.0445 45.4422C12.2271 46.2611 11.768 47.3709 11.768 48.528V265.672C11.768 266.829 12.2271 267.939 13.0445 268.758C13.862 269.577 14.9709 270.038 16.128 270.04H170.6C171.758 270.038 172.868 269.577 173.686 268.758C174.505 267.94 174.966 266.83 174.968 265.672V48.528C174.966 47.3702 174.505 46.2604 173.686 45.4417C172.868 44.623 171.758 44.1621 170.6 44.16H16.128Z" fill="#EBEBEB"/>
<path d="M343.648 270.24H189.168C187.957 270.238 186.796 269.756 185.94 268.9C185.084 268.044 184.602 266.883 184.6 265.672V48.528C184.613 47.3241 185.099 46.1737 185.954 45.3261C186.809 44.4785 187.964 44.002 189.168 44H343.648C344.85 44.0042 346.002 44.4818 346.854 45.3294C347.706 46.177 348.189 47.3262 348.2 48.528V265.672C348.2 266.881 347.721 268.04 346.868 268.896C346.014 269.753 344.857 270.236 343.648 270.24ZM189.168 44.16C188.01 44.1621 186.9 44.623 186.082 45.4417C185.263 46.2604 184.802 47.3702 184.8 48.528V265.672C184.802 266.83 185.263 267.94 186.082 268.758C186.9 269.577 188.01 270.038 189.168 270.04H343.648C344.806 270.038 345.916 269.577 346.734 268.758C347.553 267.94 348.014 266.83 348.016 265.672V48.528C348.014 47.3702 347.553 46.2604 346.734 45.4417C345.916 44.623 344.806 44.1621 343.648 44.16H189.168Z" fill="#EBEBEB"/>
<path d="M11.328 282.768V229.584H36.944V215.04H49.208V172.296L65.048 156.456H97.208V202.256H141.328V211.304H172.52V199.416H206.032V190.456H232.2V137.4H278.528V171.208H289.192V183.456H313.984V203.544H327.232L337.424 213.736V224.104H347.576V282.768H11.328Z" fill="#F0F0F0"/>
<path d="M42.528 229.584H37.384L36.944 229.28V229.584H11.328V282.768H42.528V229.584Z" fill="#E6E6E6"/>
<path d="M172.968 203.288V211.304H171.704L170.36 219.88L174.16 282.768H216.424V199.416H206.48H173.568L172.968 203.288Z" fill="#E6E6E6"/>
<path d="M271.36 183.456V282.768H348.016V224.104H337.864V213.736L327.672 203.544H314.424V183.456H291.92H289.632H271.36Z" fill="#E6E6E6"/>
<path d="M327.72 208.936H323.088V213.568H327.72V208.936Z" fill="white"/>
<path d="M319.536 208.936H314.904V213.568H319.536V208.936Z" fill="white"/>
<path d="M327.72 217.568H323.088V222.2H327.72V217.568Z" fill="white"/>
<path d="M319.536 217.568H314.904V222.2H319.536V217.568Z" fill="white"/>
<path d="M302.424 187.192H297.792V191.824H302.424V187.192Z" fill="white"/>
<path d="M294.24 187.192H289.608V191.824H294.24V187.192Z" fill="white"/>
<path d="M37.152 237.08H32.52V241.712H37.152V237.08Z" fill="white"/>
<path d="M28.9679 237.08H24.3359V241.712H28.9679V237.08Z" fill="white"/>
<path d="M211.088 217.664V213.032H206.456V217.664H211.088Z" fill="white"/>
<path d="M211.088 209.48V204.848H206.456V209.48H211.088Z" fill="white"/>
<path d="M179.448 342.048C265.114 342.048 334.56 337.994 334.56 332.992C334.56 327.991 265.114 323.936 179.448 323.936C93.7819 323.936 24.3359 327.991 24.3359 332.992C24.3359 337.994 93.7819 342.048 179.448 342.048Z" fill="#F5F5F5"/>
<path d="M335.824 293.552H292.12V329.696H335.824V293.552Z" fill="#FFC100"/>
<path opacity="0.3" d="M335.824 293.552H292.12V329.696H335.824V293.552Z" fill="white"/>
<path d="M302.896 293.552H269.024V329.696H302.896V293.552Z" fill="#FFC100"/>
<path opacity="0.1" d="M302.896 293.552H269.024V329.696H302.896V293.552Z" fill="white"/>
<path opacity="0.3" d="M290.752 293.552H281.168V304.8H290.752V293.552Z" fill="white"/>
<path opacity="0.1" d="M326.512 293.552H316.928V304.8H326.512V293.552Z" fill="black"/>
<path d="M317.448 314.824H316.184C316.164 314.456 316.164 314.088 316.184 313.72C316.184 313.144 316.624 312.032 317.424 312.536C317.672 312.688 317.96 312.336 317.712 312.184C317.533 312.076 317.329 312.014 317.12 312.005C316.911 311.995 316.703 312.037 316.514 312.127C316.326 312.218 316.162 312.353 316.039 312.523C315.916 312.692 315.836 312.889 315.808 313.096C315.701 313.66 315.674 314.236 315.728 314.808H315C314.712 314.808 314.632 315.248 314.928 315.256H315.728C315.728 315.96 315.728 316.664 315.728 317.368C315.728 317.664 316.184 317.608 316.184 317.32C316.184 316.632 316.184 315.952 316.184 315.264H317.368C317.664 315.28 317.744 314.832 317.448 314.824Z" fill="white"/>
<path d="M319.544 313.832C319.512 313.824 319.48 313.824 319.448 313.832C317.376 313.68 317.704 317.072 319.688 317.032C320.112 316.971 320.498 316.755 320.771 316.425C321.045 316.095 321.186 315.676 321.168 315.248C321.174 315.042 321.135 314.837 321.053 314.648C320.97 314.459 320.847 314.291 320.691 314.155C320.536 314.02 320.353 313.92 320.154 313.865C319.956 313.809 319.747 313.798 319.544 313.832ZM319.856 316.544C318.36 316.936 317.88 314.144 319.416 314.312C319.463 314.325 319.513 314.325 319.56 314.312C321 314.096 321 316.24 319.856 316.544Z" fill="white"/>
<path d="M324.488 314.672C323.872 312.672 320.768 314.312 321.656 316.136C321.883 316.494 322.232 316.757 322.638 316.876C323.044 316.995 323.48 316.962 323.864 316.784C324.056 316.71 324.23 316.594 324.372 316.444C324.514 316.295 324.621 316.115 324.686 315.919C324.75 315.723 324.77 315.515 324.744 315.311C324.718 315.106 324.647 314.91 324.536 314.736L324.488 314.672ZM322.016 315.816C321.592 314.6 323.616 313.416 324.064 314.856C324.069 314.881 324.079 314.905 324.095 314.926C324.11 314.946 324.129 314.964 324.152 314.976C324.936 316.376 322.448 317.08 322.016 315.816Z" fill="white"/>
<path d="M327.96 316.88C327.824 315.04 327.696 313.2 327.56 311.368C327.56 311.072 327.088 311.128 327.104 311.416L327.272 313.736C327.029 313.657 326.772 313.635 326.519 313.672C326.267 313.708 326.026 313.801 325.815 313.945C325.605 314.089 325.43 314.278 325.303 314.5C325.177 314.722 325.104 314.969 325.088 315.224C325.024 316.464 326.464 316.888 327.488 316.752V316.928C327.528 317.216 327.984 317.168 327.96 316.88ZM325.56 315.424C325.547 315.224 325.583 315.024 325.664 314.841C325.746 314.658 325.871 314.498 326.029 314.374C326.186 314.25 326.372 314.167 326.569 314.131C326.766 314.095 326.969 314.108 327.16 314.168C327.205 314.18 327.251 314.18 327.296 314.168C327.352 314.872 327.4 315.576 327.456 316.288C326.76 316.384 325.664 316.24 325.544 315.424H325.56Z" fill="white"/>
<path d="M180.976 76.408H73.016C66.3886 76.408 61.016 81.7806 61.016 88.408V313.64C61.016 320.267 66.3886 325.64 73.016 325.64H180.976C187.603 325.64 192.976 320.267 192.976 313.64V88.408C192.976 81.7806 187.603 76.408 180.976 76.408Z" fill="#263238"/>
<path d="M184.448 93.024H69.552V293.472H184.448V93.024Z" fill="#FFC100"/>
<path opacity="0.3" d="M184.448 273.6H69.552V293.464H184.448V273.6Z" fill="white"/>
<path opacity="0.1" d="M184.448 175.504C155.24 204.552 101.152 258.888 69.552 290.704V293.504H133.752L184.448 242.816V175.504Z" fill="white"/>
<path opacity="0.1" d="M69.552 193.824L170.352 93.024H123.216C110.736 105.408 89.416 126.768 69.552 146.704V193.824Z" fill="white"/>
<path opacity="0.1" d="M69.552 235.96L184.448 121.064V96.48L69.552 211.368V235.96Z" fill="white"/>
<path opacity="0.2" d="M184.448 93.024H69.552V102.064H184.448V93.024Z" fill="black"/>
<path d="M128.267 314.953C132.537 314.26 135.436 310.237 134.743 305.967C134.05 301.697 130.027 298.798 125.757 299.491C121.488 300.184 118.588 304.207 119.281 308.477C119.974 312.746 123.997 315.646 128.267 314.953Z" fill="#FFC100"/>
<g opacity="0.6">
<path opacity="0.6" d="M81.976 99.616H83.712V97.296H81.976V99.616Z" fill="white"/>
<path opacity="0.6" d="M79.144 99.616H80.88V96.528H79.144V99.616Z" fill="white"/>
<path opacity="0.6" d="M76.312 99.616H78.048V95.752H76.312V99.616Z" fill="white"/>
<path opacity="0.6" d="M73.4799 99.616H75.2159V94.976H73.4799V99.616Z" fill="white"/>
</g>
<path opacity="0.6" d="M172.256 96.448H171.224V98.768H172.256V96.448Z" fill="white"/>
<path opacity="0.6" d="M172.968 99.616H181.184V95.608H172.968V99.616Z" fill="white"/>
<path opacity="0.4" d="M132.72 212.8C130.088 210.4 127 213.6 127 213.6C127 213.6 123.92 210.4 121.28 212.76C117.52 216.128 122.984 222.152 127 223.36C131.016 222.184 136.48 216.16 132.72 212.8Z" fill="white"/>
<path d="M159.904 229.6H94.096C92.1058 229.6 90.1972 230.391 88.7899 231.798C87.3826 233.205 86.592 235.114 86.592 237.104C86.592 239.094 87.3826 241.003 88.7899 242.41C90.1972 243.817 92.1058 244.608 94.096 244.608H159.904C161.894 244.608 163.803 243.817 165.21 242.41C166.617 241.003 167.408 239.094 167.408 237.104C167.408 235.114 166.617 233.205 165.21 231.798C163.803 230.391 161.894 229.6 159.904 229.6Z" fill="white"/>
<path d="M105.296 241.096V233.136H108.2C108.781 233.126 109.358 233.235 109.896 233.456C110.357 233.649 110.772 233.938 111.112 234.304C111.44 234.67 111.688 235.101 111.84 235.568C112.192 236.606 112.192 237.73 111.84 238.768C111.667 239.239 111.394 239.668 111.04 240.024C110.69 240.37 110.274 240.642 109.816 240.824C109.306 241.021 108.763 241.119 108.216 241.112L105.296 241.096ZM110.504 237.096C110.505 236.741 110.454 236.388 110.352 236.048C110.255 235.754 110.1 235.482 109.896 235.248C109.692 235.015 109.438 234.831 109.152 234.712C108.839 234.578 108.501 234.513 108.16 234.52H106.824V239.76H108.2C108.547 239.767 108.89 239.699 109.208 239.56C109.488 239.432 109.737 239.243 109.936 239.008C110.141 238.76 110.295 238.475 110.392 238.168C110.482 237.821 110.52 237.462 110.504 237.104V237.096Z" fill="#E0E0E0"/>
<path d="M116.608 241.152C116.055 241.161 115.508 241.044 115.008 240.808C114.548 240.588 114.137 240.278 113.8 239.896C113.119 239.131 112.741 238.144 112.736 237.12C112.734 236.596 112.834 236.077 113.032 235.592C113.217 235.117 113.488 234.68 113.832 234.304C114.179 233.929 114.598 233.627 115.064 233.416C115.547 233.192 116.075 233.08 116.608 233.088C117.149 233.079 117.684 233.2 118.168 233.44C118.639 233.674 119.058 234 119.4 234.4C119.744 234.782 120.015 235.224 120.2 235.704C120.387 236.172 120.482 236.672 120.48 237.176C120.483 237.696 120.385 238.213 120.192 238.696C120.006 239.168 119.734 239.602 119.392 239.976C119.049 240.35 118.632 240.65 118.168 240.856C117.677 241.071 117.144 241.173 116.608 241.152ZM114.32 237.152C114.321 237.489 114.375 237.824 114.48 238.144C114.579 238.453 114.73 238.743 114.928 239C115.128 239.241 115.373 239.442 115.648 239.592C115.951 239.743 116.286 239.82 116.624 239.816C116.966 239.821 117.304 239.741 117.608 239.584C117.888 239.434 118.133 239.227 118.328 238.976C118.523 238.718 118.672 238.429 118.768 238.12C118.87 237.807 118.921 237.481 118.92 237.152C118.92 236.812 118.866 236.475 118.76 236.152C118.662 235.841 118.507 235.551 118.304 235.296C118.109 235.051 117.864 234.852 117.584 234.712C117.279 234.567 116.946 234.492 116.608 234.492C116.27 234.492 115.937 234.567 115.632 234.712C115.353 234.863 115.108 235.07 114.912 235.32C114.719 235.576 114.57 235.863 114.472 236.168C114.376 236.476 114.325 236.797 114.32 237.12V237.152Z" fill="#E0E0E0"/>
<path d="M123.176 236V241.096H121.64V233.136H122.832L126.936 238.36V233.152H128.472V241.096H127.232L123.176 236Z" fill="#E0E0E0"/>
<path d="M132.36 233.136H133.712L136.712 241.096H135.112L134.376 239.112H131.624L130.904 241.096H129.304L132.36 233.136ZM134.128 238.024L133.04 234.896L131.904 238.024H134.128Z" fill="#E0E0E0"/>
<path d="M142.696 234.496H140.2V241.096H138.68V234.496H136.16V233.136H142.72L142.696 234.496Z" fill="#E0E0E0"/>
<path d="M149.152 239.736V241.096H143.672V233.136H149.048V234.496H145.208V236.408H148.528V237.664H145.208V239.736H149.152Z" fill="#E0E0E0"/>
<path opacity="0.3" d="M192.984 147.512L168.88 150.944L175.176 195.728L192.984 193.92V147.512Z" fill="#263238"/>
<path opacity="0.7" d="M128.112 203.536C152.616 203.536 172.48 183.672 172.48 159.168C172.48 134.664 152.616 114.8 128.112 114.8C103.608 114.8 83.744 134.664 83.744 159.168C83.744 183.672 103.608 203.536 128.112 203.536Z" fill="white"/>
<path d="M144.024 132.04C144.024 132.04 153.088 145.448 158.176 145.992C163.264 146.536 183.168 129.416 183.168 129.416L186.544 132.336C186.544 132.336 167.608 153.136 159.704 154.352C151.8 155.568 136.776 139.904 136.776 139.904L144.024 132.04Z" fill="#E4897B"/>
<path d="M141.864 133.04C141.864 133.04 145.064 129.904 149.464 135.352C153.864 140.8 155.672 141.912 155.672 141.912L144.472 152.848C144.472 152.848 137.888 135.952 141.864 133.04Z" fill="#FFC100"/>
<path d="M181.592 128.176C181.592 128.176 181.984 123.144 183.152 122.824C184.32 122.504 183.904 126.224 183.904 126.224C183.904 126.224 190.064 122.464 191.304 122.8C192.544 123.136 192.344 125.568 192.104 126.224C190.224 131.824 183.504 134.144 183.504 134.144L180.792 131.584L181.592 128.176Z" fill="#E4897B"/>
<path d="M135.4 118.728C135.4 118.728 141.584 129.032 139.688 135.528C137.792 142.024 128.04 136.184 128.04 136.184L128.16 123.384L135.4 118.728Z" fill="#263238"/>
<path d="M118.816 100.968C118.816 100.968 109.672 105.6 113.264 121.896C119.28 149.216 128.16 137.896 128.16 137.896C128.16 137.896 127.768 127.128 124.16 121.896C120.552 116.664 121.304 109.2 121.304 109.2L118.816 100.968Z" fill="#263238"/>
<path d="M145.336 173.144L117.92 175.544C117.654 168.748 116.676 161.999 115 155.408C114.344 152.784 113.528 149.848 112.472 146.464C111.904 144.648 111.28 142.704 110.584 140.616C110.064 139.016 109.496 137.344 108.872 135.56C112.596 134.369 116.4 133.447 120.256 132.8C124.321 132.072 128.433 131.639 132.56 131.504C137.896 131.456 144.024 132.056 144.024 132.056C144.024 132.056 144.896 132.264 145.448 137.92C145.944 143.2 146.432 153.832 145.336 173.144Z" fill="#FFC100"/>
<path opacity="0.2" d="M145.336 173.144L117.92 175.544C117.654 168.748 116.676 161.999 115 155.408C114.344 152.784 113.528 149.848 112.472 146.464C111.904 144.648 111.28 142.704 110.584 140.616C110.064 139.016 109.496 137.344 108.872 135.56C112.596 134.369 116.4 133.447 120.256 132.8C124.321 132.072 128.433 131.639 132.56 131.504C137.896 131.456 144.024 132.056 144.024 132.056C144.024 132.056 144.896 132.264 145.448 137.92C145.944 143.2 146.432 153.832 145.336 173.144Z" fill="white"/>
<path opacity="0.2" d="M117.8 173.456C122.192 171.744 136.672 164.656 136.672 164.656L117.472 168.992C117.56 170.448 117.68 171.92 117.8 173.456Z" fill="black"/>
<path d="M130.304 137.536C123.544 136.672 121.504 133.792 121.504 133.792C125.792 129.744 122.232 122.736 122.232 122.736L130.36 124.256C130.174 125.388 130.07 126.533 130.048 127.68C129.984 132.616 132.216 132.664 132.216 132.664C133.648 135.336 130.304 137.536 130.304 137.536Z" fill="#E4897B"/>
<path opacity="0.2" d="M130.368 124.256C130.182 125.388 130.078 126.533 130.056 127.68C124.56 127.68 122.24 122.736 122.24 122.736L130.368 124.256Z" fill="black"/>
<path d="M126.72 101.488C133.792 101.096 135.392 104.488 136.32 111.744C137.472 120.816 135.84 127.688 126.896 126.232C117.08 124.632 114.328 109.088 120.232 103.144C121.616 101.736 124.472 101.6 126.72 101.488Z" fill="#E4897B"/>
<path d="M131.752 112.664C132.375 113.688 133.119 114.634 133.968 115.48C133.778 115.784 133.508 116.029 133.188 116.189C132.867 116.348 132.509 116.416 132.152 116.384L131.752 112.664Z" fill="#DE5753"/>
<path d="M127.472 111.848C127.771 111.697 128.012 111.453 128.16 111.152L126.936 111.744C126.758 111.848 126.616 112.004 126.53 112.192C126.444 112.38 126.418 112.589 126.456 112.792C126.496 113.376 126.848 113.816 127.256 113.792C127.664 113.768 127.92 113.264 127.88 112.688C127.86 112.365 127.714 112.063 127.472 111.848Z" fill="#263238"/>
<path d="M134.336 111.2C134.635 111.049 134.876 110.804 135.024 110.504L133.808 111.096C133.629 111.202 133.487 111.359 133.4 111.548C133.312 111.737 133.285 111.947 133.32 112.152C133.368 112.736 133.72 113.176 134.12 113.144C134.52 113.112 134.784 112.624 134.736 112.04C134.731 111.88 134.693 111.723 134.624 111.578C134.555 111.434 134.457 111.305 134.336 111.2Z" fill="#263238"/>
<path d="M127.464 108.584C126.901 108.548 126.338 108.641 125.817 108.856C125.295 109.071 124.83 109.402 124.456 109.824" stroke="#263238" stroke-width="0.707336" stroke-linecap="round" stroke-linejoin="round"/>
<path d="M131.76 108.296C132.195 108.051 132.68 107.907 133.179 107.875C133.678 107.843 134.177 107.924 134.64 108.112" stroke="#263238" stroke-width="0.707336" stroke-linecap="round" stroke-linejoin="round"/>
<path d="M115.248 134.536C115.248 134.536 123.184 140.976 130.568 140.872C137.952 140.768 140.552 132.464 140.552 132.464C140.552 132.464 129.096 129.072 115.248 134.536Z" fill="#E4897B"/>
<path d="M103.576 150.616C103.576 150.616 101.08 165.336 101.376 169.528C101.672 173.72 108.008 173.848 111.576 173.424C115.68 172.936 137.08 164.472 137.08 164.472L136.088 160.24C136.088 160.24 119.336 164.8 112.2 165.6C111.867 165.634 111.53 165.592 111.215 165.476C110.901 165.36 110.617 165.174 110.385 164.931C110.154 164.689 109.981 164.397 109.879 164.077C109.778 163.758 109.751 163.42 109.8 163.088L111.456 152.16L103.576 150.616Z" fill="#E4897B"/>
<path d="M108.872 135.528C108.872 135.528 113.248 134.56 114.096 141.512C114.609 145.722 114.059 149.993 112.496 153.936L101.408 151.936C101.408 151.936 103.96 135.888 108.872 135.528Z" fill="#FFC100"/>
<path d="M141.552 156C141.279 155.834 140.956 155.769 140.64 155.816C139.328 156.152 135.344 160.096 135.112 160.616L136.136 164.352C136.136 164.352 138.232 165.472 139.248 165.152C140.264 164.832 145.416 161.04 145.424 160.128C145.43 160.078 145.43 160.027 145.424 159.976C145.608 159.84 145.76 159.728 145.864 159.664C146.736 159.12 143.512 156.712 141.552 156Z" fill="#E4897B"/>
<path d="M126.304 101.512C126.304 101.512 127.208 110.376 119.816 110.696C112.424 111.016 118.6 102.752 118.6 102.752L126.304 101.512Z" fill="#263238"/>
<path d="M124.72 98.776C112.568 99.16 113.576 116.936 120.144 121.896C120.144 121.896 116.944 117.592 118.8 113.848C118.8 113.848 121.2 108.056 120.4 103.6C122.279 102.785 124.274 102.269 126.312 102.072C127.68 103.736 131.112 108.792 135.608 108.688C135.868 109.472 136.068 110.274 136.208 111.088C136.208 111.088 136.888 98.4 124.72 98.776Z" fill="#263238"/>
<path d="M133.592 119.792C132.905 120.158 132.14 120.356 131.362 120.37C130.583 120.384 129.812 120.213 129.112 119.872C129.092 119.861 129.075 119.847 129.061 119.829C129.047 119.811 129.037 119.791 129.031 119.77C129.025 119.748 129.024 119.725 129.026 119.703C129.029 119.681 129.037 119.659 129.048 119.64C129.057 119.621 129.07 119.604 129.086 119.59C129.103 119.576 129.121 119.566 129.142 119.56C129.162 119.554 129.184 119.552 129.205 119.555C129.226 119.558 129.246 119.565 129.264 119.576C129.916 119.888 130.632 120.043 131.354 120.027C132.077 120.012 132.786 119.827 133.424 119.488C133.462 119.468 133.507 119.463 133.549 119.475C133.591 119.487 133.626 119.514 133.648 119.552C133.668 119.589 133.672 119.633 133.66 119.673C133.648 119.714 133.621 119.748 133.584 119.768L133.592 119.792Z" fill="#263238"/>
<path d="M120.04 115.28C119.927 114.466 119.495 113.729 118.84 113.233C118.184 112.736 117.359 112.52 116.544 112.632C114.368 112.984 113.568 117.544 119.08 118.328C119.864 118.44 120.264 117.648 120.04 115.28Z" fill="#E4897B"/>
<path d="M119.216 147.608L126.576 146.568C126.576 146.568 128.976 154.416 124.608 155.256C119.832 156.184 119.216 147.608 119.216 147.608Z" fill="#FFC100"/>
<path d="M146.944 189.896C146.576 186.264 146 181.32 145.264 177.432L145.336 173.144L117.92 175.544L117.672 179.544C117.032 180.728 114.232 186.592 112.968 200.936C118.67 203.004 124.734 203.883 130.788 203.517C136.842 203.151 142.757 201.548 148.168 198.808L146.944 189.896Z" fill="#263238"/>
<path d="M216.472 176.656L202.528 180.192C201.451 179.526 200.172 179.265 198.92 179.456C196.944 179.824 192 183.864 192.192 184.456C192.384 185.048 198.344 187.792 199.2 187.568C202.272 186.768 205.44 183.192 205.44 183.192L217.904 180.624L216.472 176.656Z" fill="#E4897B"/>
<path d="M251.4 126.512C248.568 129.528 241.064 129.272 241.064 129.272C241.064 129.272 238.592 129.488 237.976 127.392C240.688 126.72 241.104 124.768 241.528 123.08C241.737 122.037 241.737 120.963 241.528 119.92C241.441 119.332 241.318 118.749 241.16 118.176L249.872 110.6C249.064 115.2 248.2 123.472 251.4 126.512Z" fill="#E4897B"/>
<path opacity="0.2" d="M248.128 115.12C248.2 120.72 243.76 122.592 241.552 123.08C241.761 122.037 241.761 120.963 241.552 119.92L248.128 115.12Z" fill="black"/>
<path d="M248.848 116.352C248.001 117.851 246.685 119.03 245.102 119.708C243.519 120.386 241.758 120.525 240.088 120.104C237.917 119.606 236.018 118.295 234.784 116.44C234.607 116.184 234.447 115.917 234.304 115.64C231.624 110.536 230.176 101.36 235.488 97.456C236.656 96.5795 238.03 96.0181 239.478 95.8255C240.925 95.633 242.398 95.8158 243.755 96.3563C245.111 96.8969 246.306 97.7771 247.225 98.9125C248.143 100.048 248.755 101.4 249 102.84C250.152 108.96 251.128 112.504 248.848 116.352Z" fill="#E4897B"/>
<path d="M239.904 107.24C239.989 107.427 239.998 107.638 239.931 107.832C239.864 108.025 239.726 108.186 239.544 108.28C239.224 108.36 238.864 108.024 238.744 107.536C238.624 107.048 238.784 106.576 239.104 106.496C239.424 106.416 239.776 106.744 239.904 107.24Z" fill="#263238"/>
<path d="M234.504 108.376C234.664 108.856 234.464 109.336 234.152 109.416C233.84 109.496 233.464 109.16 233.352 108.672C233.24 108.184 233.392 107.712 233.712 107.632C234.032 107.552 234.384 107.912 234.504 108.376Z" fill="#263238"/>
<path d="M236.448 108.528C236.295 110.136 235.915 111.714 235.32 113.216C236.12 113.536 237.24 113.032 238 112.616L236.448 108.528Z" fill="#DE5753"/>
<path d="M241.504 104.616C241.454 104.636 241.399 104.642 241.345 104.633C241.292 104.625 241.242 104.602 241.2 104.568C240.913 104.328 240.575 104.158 240.211 104.072C239.847 103.986 239.468 103.986 239.104 104.072C239.066 104.088 239.025 104.097 238.984 104.097C238.943 104.096 238.902 104.088 238.865 104.071C238.827 104.054 238.794 104.029 238.766 103.999C238.738 103.968 238.718 103.932 238.705 103.893C238.692 103.854 238.687 103.812 238.691 103.771C238.695 103.73 238.708 103.691 238.728 103.655C238.749 103.619 238.776 103.588 238.809 103.563C238.842 103.539 238.88 103.521 238.92 103.512C239.377 103.396 239.855 103.389 240.315 103.492C240.775 103.594 241.204 103.804 241.568 104.104C241.599 104.128 241.625 104.157 241.645 104.191C241.664 104.224 241.677 104.262 241.682 104.3C241.688 104.339 241.685 104.378 241.675 104.416C241.665 104.454 241.648 104.489 241.624 104.52C241.59 104.558 241.549 104.591 241.504 104.616Z" fill="#263238"/>
<path d="M239.144 115.04C239.872 114.962 240.572 114.713 241.185 114.312C241.798 113.912 242.308 113.372 242.672 112.736C242.681 112.718 242.687 112.698 242.689 112.677C242.69 112.657 242.687 112.636 242.681 112.617C242.674 112.597 242.663 112.579 242.649 112.564C242.636 112.549 242.619 112.537 242.6 112.528C242.583 112.518 242.564 112.512 242.544 112.511C242.525 112.509 242.505 112.511 242.486 112.517C242.467 112.523 242.45 112.532 242.435 112.545C242.42 112.558 242.408 112.574 242.4 112.592C242.055 113.177 241.577 113.673 241.007 114.041C240.436 114.409 239.787 114.639 239.112 114.712C239.091 114.713 239.071 114.718 239.052 114.727C239.034 114.736 239.017 114.749 239.004 114.765C238.99 114.781 238.98 114.799 238.974 114.819C238.968 114.839 238.966 114.859 238.968 114.88C238.97 114.9 238.976 114.919 238.986 114.937C238.995 114.955 239.008 114.97 239.024 114.983C239.039 114.996 239.057 115.005 239.077 115.011C239.096 115.016 239.116 115.018 239.136 115.016L239.144 115.04Z" fill="#263238"/>
<path d="M231.784 106.944C231.737 106.983 231.677 107.003 231.616 107C231.578 106.993 231.541 106.979 231.509 106.958C231.476 106.937 231.449 106.909 231.427 106.877C231.405 106.845 231.39 106.809 231.383 106.771C231.376 106.733 231.376 106.694 231.384 106.656C231.47 106.191 231.666 105.753 231.956 105.379C232.245 105.004 232.62 104.705 233.048 104.504C233.084 104.49 233.123 104.483 233.162 104.484C233.201 104.484 233.239 104.493 233.275 104.508C233.311 104.524 233.343 104.546 233.37 104.575C233.397 104.603 233.418 104.636 233.432 104.672C233.446 104.708 233.453 104.747 233.453 104.786C233.452 104.825 233.443 104.863 233.428 104.899C233.412 104.935 233.39 104.967 233.362 104.994C233.333 105.021 233.3 105.042 233.264 105.056C232.93 105.224 232.639 105.467 232.415 105.767C232.192 106.067 232.041 106.415 231.976 106.784C231.957 106.822 231.93 106.857 231.897 106.884C231.864 106.912 231.825 106.932 231.784 106.944Z" fill="#263238"/>
<path d="M252.872 107.12C252.544 108.656 251.624 110.001 250.312 110.864C248.56 111.984 247.112 110.568 247.048 108.6C247.048 106.848 247.912 104.096 249.92 103.8C251.928 103.504 253.24 105.232 252.872 107.12Z" fill="#E4897B"/>
<path d="M225.32 131.264C222.323 134.118 220.117 137.702 218.92 141.664C217.416 146.464 216.008 157.768 215.32 163.904C215.176 165.089 214.653 166.196 213.831 167.06C213.008 167.925 211.928 168.501 210.752 168.704L193.904 171.64L195.248 180.208L216.592 178.152C218.876 177.932 221.029 176.981 222.729 175.44C224.43 173.9 225.588 171.851 226.032 169.6C227.336 163 229.08 153.432 229.872 145.856C231.216 132.984 229.8 129.936 225.32 131.264Z" fill="#FFC100"/>
<path opacity="0.1" d="M225.32 131.264C222.323 134.118 220.117 137.702 218.92 141.664C217.416 146.464 216.008 157.768 215.32 163.904C215.176 165.089 214.653 166.196 213.831 167.06C213.008 167.925 211.928 168.501 210.752 168.704L193.904 171.64L195.248 180.208L216.592 178.152C218.876 177.932 221.029 176.981 222.729 175.44C224.43 173.9 225.588 171.851 226.032 169.6C227.336 163 229.08 153.432 229.872 145.856C231.216 132.984 229.8 129.936 225.32 131.264Z" fill="black"/>
<path d="M213.488 321.68L207.152 320.12L210.76 306.544L217.096 308.104L213.488 321.68Z" fill="#E4897B"/>
<path d="M207.216 317.928L214.416 320.52C214.534 320.563 214.634 320.645 214.698 320.753C214.762 320.861 214.787 320.988 214.768 321.112L214.04 326.8C214.006 327.045 213.877 327.266 213.681 327.416C213.485 327.566 213.237 327.632 212.992 327.6C212.923 327.59 212.856 327.571 212.792 327.544C210.48 326.672 208.84 325.944 205.92 324.864C204.12 324.208 198.624 322.464 196.144 321.544C193.664 320.624 194.224 318.08 195.344 318.216C200.264 318.872 204.192 318.736 206.12 317.952C206.47 317.807 206.861 317.799 207.216 317.928Z" fill="#2E353A"/>
<path d="M204.88 318.256C204.466 318.146 204.103 317.894 203.856 317.544C203.782 317.414 203.743 317.266 203.743 317.116C203.743 316.966 203.782 316.818 203.856 316.688C203.884 316.606 203.935 316.533 204.003 316.479C204.071 316.425 204.153 316.392 204.24 316.384C205.04 316.28 206.504 318.144 206.64 318.36C206.658 318.383 206.668 318.411 206.668 318.44C206.668 318.469 206.658 318.497 206.64 318.52C206.628 318.547 206.608 318.57 206.582 318.584C206.556 318.599 206.525 318.604 206.496 318.6C205.946 318.544 205.405 318.429 204.88 318.256ZM204.44 316.712C204.377 316.696 204.311 316.696 204.248 316.712C204.248 316.712 204.144 316.712 204.096 316.84C204.05 316.929 204.027 317.028 204.027 317.128C204.027 317.228 204.05 317.327 204.096 317.416C204.654 317.954 205.393 318.262 206.168 318.28C205.697 317.652 205.111 317.12 204.44 316.712Z" fill="#FFC100"/>
<path d="M206.472 318.592H206.4C205.912 318.04 205.2 316.312 205.544 315.736C205.602 315.639 205.692 315.565 205.799 315.527C205.905 315.489 206.022 315.49 206.128 315.528C206.24 315.551 206.346 315.598 206.439 315.666C206.531 315.733 206.608 315.82 206.664 315.92C207.144 316.72 206.664 318.48 206.664 318.568C206.657 318.593 206.642 318.615 206.622 318.633C206.602 318.65 206.578 318.66 206.552 318.664C206.534 318.659 206.518 318.649 206.504 318.637C206.49 318.624 206.479 318.609 206.472 318.592ZM206.144 315.768H206.08C205.896 315.704 205.848 315.808 205.824 315.84C205.608 316.2 206.008 317.44 206.448 318.136C206.664 317.451 206.664 316.717 206.448 316.032C206.418 315.969 206.376 315.914 206.324 315.868C206.271 315.823 206.21 315.789 206.144 315.768Z" fill="#FFC100"/>
<path opacity="0.2" d="M217.096 308.104L210.76 306.544L208.904 313.552L215.24 315.104L217.096 308.104Z" fill="black"/>
<path d="M255.44 321.616L248.96 322.384L247.56 308.408L254.04 307.64L255.44 321.616Z" fill="#E4897B"/>
<path d="M248.248 320.312L255.888 320.208C256.014 320.208 256.136 320.251 256.235 320.329C256.334 320.408 256.403 320.517 256.432 320.64L257.744 326.24C257.797 326.481 257.752 326.732 257.621 326.941C257.489 327.149 257.28 327.297 257.04 327.352C256.971 327.36 256.901 327.36 256.832 327.352C254.36 327.352 252.56 327.216 249.456 327.256C247.544 327.256 241.784 327.552 239.144 327.592C236.504 327.632 236.12 325.016 237.2 324.768C242 323.648 245.664 322.136 247.2 320.72C247.483 320.452 247.859 320.306 248.248 320.312Z" fill="#2E353A"/>
<path d="M246.184 321.44C245.756 321.482 245.326 321.375 244.968 321.136C244.85 321.042 244.758 320.919 244.702 320.778C244.646 320.638 244.628 320.486 244.648 320.336C244.644 320.249 244.665 320.162 244.709 320.087C244.753 320.012 244.818 319.951 244.896 319.912C245.592 319.544 247.64 320.768 247.864 320.904C247.89 320.917 247.911 320.938 247.924 320.964C247.937 320.99 247.941 321.019 247.936 321.048C247.933 321.078 247.921 321.107 247.901 321.13C247.881 321.153 247.854 321.169 247.824 321.176C247.29 321.327 246.739 321.416 246.184 321.44ZM245.232 320.152C245.165 320.144 245.098 320.158 245.04 320.192C245 320.192 244.952 320.248 244.944 320.368C244.933 320.467 244.946 320.568 244.983 320.661C245.019 320.755 245.077 320.838 245.152 320.904C245.862 321.213 246.662 321.242 247.392 320.984C246.733 320.57 245.999 320.287 245.232 320.152Z" fill="#FFC100"/>
<path d="M247.784 321.2H247.712C247.064 320.856 245.792 319.488 245.912 318.8C245.931 318.688 245.989 318.587 246.075 318.514C246.161 318.441 246.271 318.4 246.384 318.4C246.496 318.384 246.611 318.392 246.72 318.424C246.829 318.456 246.93 318.51 247.016 318.584C247.752 319.168 247.928 320.984 247.936 321.056C247.937 321.083 247.931 321.11 247.919 321.134C247.906 321.158 247.887 321.178 247.864 321.192L247.784 321.2ZM246.488 318.664H246.416C246.224 318.664 246.208 318.776 246.208 318.816C246.128 319.224 246.944 320.264 247.6 320.744C247.541 320.024 247.262 319.34 246.8 318.784C246.715 318.706 246.604 318.663 246.488 318.664Z" fill="#FFC100"/>
<path opacity="0.2" d="M254.04 307.64L247.56 308.408L248.288 315.616L254.768 314.848L254.04 307.64Z" fill="black"/>
<path d="M225.304 193.888C225.304 193.888 209 273.6 208.44 304.208L219.304 309.064C219.304 309.064 228.152 274.48 231.024 255.048C231.024 255.048 238.64 239.616 240.688 227.048C240.688 227.048 240.264 282.248 245.984 311.376L256.176 310.576C256.176 310.576 266.456 207.024 264.6 190.448L225.304 193.888Z" fill="#FFC100"/>
<path opacity="0.6" d="M225.304 193.888C225.304 193.888 209 273.6 208.44 304.208L219.304 309.064C219.304 309.064 228.152 274.48 231.024 255.048C231.024 255.048 238.64 239.616 240.688 227.048C240.688 227.048 240.264 282.248 245.984 311.376L256.176 310.576C256.176 310.576 266.456 207.024 264.6 190.448L225.304 193.888Z" fill="white"/>
<path opacity="0.2" d="M238.92 206.928C238.92 206.928 237.712 225.88 239.432 232.84C239.952 230.88 240.384 228.928 240.688 227.04L238.92 206.928Z" fill="black"/>
<path d="M244.688 313.688L258.68 311.608L258.248 307.736L243.704 309.64L244.688 313.688Z" fill="#FFC100"/>
<path d="M206.6 307.192L220.112 311.352L221.4 307.68L207.456 303.112L206.6 307.192Z" fill="#FFC100"/>
<path d="M225.32 131.264C225.32 131.264 227.048 127.848 242.232 126.968C257.416 126.088 264.2 128.336 264.2 128.336C264.2 128.336 262.824 160.48 264.584 190.456C264.584 190.456 239.192 199.504 225.288 193.888C225.304 193.888 214.888 155.064 225.32 131.264Z" fill="#FFC100"/>
<path opacity="0.2" d="M247.672 126.776C245.992 126.776 244.184 126.856 242.232 126.968C241.056 127.04 239.976 127.12 238.96 127.216C238.96 127.216 240.256 129.672 242.232 129.672C243.307 129.675 244.367 129.413 245.316 128.907C246.265 128.402 247.074 127.67 247.672 126.776Z" fill="black"/>
<path opacity="0.3" d="M263.808 168.544L240.688 180.232C240.688 180.232 255.264 180.68 263.976 175.952C263.907 173.451 263.851 170.981 263.808 168.544Z" fill="black"/>
<path opacity="0.1" d="M241.936 135.968L250.152 172.52L248.328 177.248L241.936 135.968Z" fill="black"/>
<path d="M242 136.991L198.733 143.546L204.998 184.896L248.265 178.341L242 136.991Z" fill="#FFC100"/>
<path opacity="0.1" d="M242 136.991L198.733 143.546L204.998 184.896L248.265 178.341L242 136.991Z" fill="white"/>
<path d="M209.394 140.997L175.921 146.179L182.311 187.455L215.784 182.273L209.394 140.997Z" fill="#FFC100"/>
<path opacity="0.3" d="M209.394 140.997L175.921 146.179L182.311 187.455L215.784 182.273L209.394 140.997Z" fill="white"/>
<path opacity="0.3" d="M197.4 142.849L187.928 144.315L189.649 155.431L199.12 153.964L197.4 142.849Z" fill="white"/>
<path opacity="0.1" d="M232.74 137.387L223.269 138.853L224.989 149.969L234.461 148.503L232.74 137.387Z" fill="black"/>
<path opacity="0.2" d="M212.364 174.024L202.015 175.626L202.991 181.927L213.34 180.325L212.364 174.024Z" fill="white"/>
<path opacity="0.2" d="M228.528 179.904L227.464 178.496L224.032 179.232C223.849 179.816 223.779 180.43 223.824 181.04L228.624 180.304L228.528 179.904Z" fill="#2E353A"/>
<path d="M222.6 162.576C221.8 162.848 220.68 162.832 220.568 161.776C220.48 160.896 221.52 160.176 222.312 160.32C222.374 160.331 222.437 160.316 222.488 160.28C222.539 160.244 222.573 160.19 222.584 160.128C222.595 160.066 222.58 160.003 222.544 159.952C222.508 159.901 222.454 159.867 222.392 159.856C222.109 159.816 221.82 159.837 221.546 159.918C221.271 159.998 221.017 160.136 220.8 160.322C220.583 160.508 220.408 160.738 220.286 160.997C220.165 161.256 220.1 161.538 220.096 161.824C220.232 163.216 221.696 163.424 222.776 163.024C223.088 162.92 222.92 162.472 222.6 162.576Z" fill="white"/>
<path d="M223.4 158.176C223.328 157.88 222.856 157.928 222.92 158.224C223.267 159.749 223.605 161.272 223.936 162.792C224 163.088 224.472 163.048 224.408 162.744L223.4 158.176Z" fill="white"/>
<path d="M226.24 159.072C226.208 159.081 226.179 159.101 226.16 159.128C224.024 159.536 225.28 162.872 227.264 162.256C227.672 162.079 228 161.757 228.185 161.352C228.37 160.947 228.398 160.488 228.264 160.064C228.216 159.853 228.122 159.656 227.988 159.486C227.854 159.317 227.683 159.179 227.489 159.084C227.295 158.989 227.082 158.939 226.866 158.936C226.65 158.934 226.436 158.981 226.24 159.072ZM227.296 161.72C225.896 162.52 224.656 159.864 226.248 159.592C226.297 159.586 226.342 159.563 226.376 159.528C227.8 158.936 228.384 161.096 227.296 161.72Z" fill="white"/>
<path d="M230.232 157.808L229.36 157.96L229.216 157.016C229.168 156.712 228.696 156.76 228.744 157.064C228.792 157.368 228.84 157.712 228.896 158.04L228.032 158.184C227.736 158.24 227.776 158.712 228.08 158.664L228.968 158.512L229.496 161.944C229.544 162.24 230.016 162.192 229.968 161.888C229.792 160.736 229.608 159.584 229.432 158.432L230.288 158.28C230.6 158.232 230.536 157.752 230.232 157.808Z" fill="white"/>
<path d="M233.576 158.44C233.285 158.268 232.951 158.183 232.613 158.196C232.276 158.209 231.949 158.318 231.672 158.512C231.56 157.888 231.44 157.264 231.312 156.64C231.248 156.344 230.776 156.392 230.84 156.696C231.165 158.296 231.432 159.896 231.64 161.496C231.688 161.8 232.16 161.752 232.112 161.448C232 160.648 231.872 159.848 231.736 159.048C231.86 158.925 232.008 158.829 232.17 158.766C232.333 158.703 232.507 158.674 232.682 158.682C232.856 158.689 233.027 158.733 233.184 158.809C233.34 158.886 233.479 158.995 233.592 159.128C233.881 159.738 234.032 160.405 234.032 161.08C234.046 161.135 234.08 161.184 234.127 161.217C234.174 161.249 234.232 161.264 234.289 161.258C234.346 161.253 234.399 161.227 234.438 161.185C234.478 161.144 234.501 161.089 234.504 161.032C234.456 160.168 234.424 158.896 233.576 158.44Z" fill="white"/>
<path d="M235.592 157.528C235.4 157.63 235.231 157.772 235.098 157.944C234.965 158.117 234.869 158.315 234.819 158.527C234.768 158.739 234.763 158.959 234.804 159.173C234.845 159.387 234.931 159.59 235.056 159.768C235.16 159.985 235.307 160.177 235.488 160.334C235.67 160.491 235.882 160.608 236.111 160.679C236.341 160.749 236.582 160.772 236.82 160.744C237.059 160.717 237.289 160.641 237.496 160.52C237.768 160.384 237.6 159.936 237.328 160.072C237.106 160.231 236.837 160.309 236.565 160.293C236.292 160.276 236.034 160.168 235.832 159.984C235.677 159.842 235.547 159.674 235.448 159.488C236.152 159.544 237.44 159.4 237.472 158.632C237.512 157.648 236.384 157.216 235.592 157.528ZM236.936 158.704C236.864 158.816 236.536 158.888 236.408 158.928C236.046 159.045 235.661 159.067 235.288 158.992C235.264 158.864 235.266 158.732 235.293 158.604C235.321 158.476 235.373 158.355 235.448 158.248C235.563 158.105 235.719 158.001 235.895 157.949C236.071 157.898 236.258 157.902 236.432 157.96C236.664 158.016 237.16 158.4 236.936 158.704Z" fill="white"/>
<path d="M241 158.456C240.867 158.228 240.662 158.051 240.417 157.954C240.172 157.857 239.901 157.845 239.648 157.92C239.264 158 238.336 158.384 238.544 157.624C238.672 157.12 239.344 156.928 239.816 156.968C240.12 156.968 240.2 156.528 239.888 156.496C239.088 156.424 237.544 157.144 238.04 158.192C238.272 158.68 238.84 158.624 239.304 158.512C239.558 158.408 239.83 158.356 240.104 158.36C240.205 158.367 240.301 158.402 240.383 158.46C240.465 158.519 240.529 158.599 240.568 158.692C240.607 158.785 240.619 158.887 240.604 158.987C240.588 159.086 240.545 159.179 240.48 159.256C240.144 159.696 239.488 159.616 239.008 159.536C238.948 159.53 238.887 159.548 238.839 159.584C238.791 159.621 238.759 159.675 238.749 159.735C238.738 159.795 238.751 159.856 238.785 159.907C238.818 159.957 238.869 159.994 238.928 160.008C239.228 160.093 239.542 160.111 239.849 160.06C240.156 160.008 240.448 159.89 240.704 159.712C240.878 159.559 241 159.356 241.053 159.131C241.106 158.906 241.087 158.67 241 158.456Z" fill="white"/>
<path d="M248.384 171.664L234.408 175.072C233.338 174.386 232.06 174.103 230.8 174.272C228.832 174.624 223.848 178.616 224.032 179.208C224.216 179.8 228.832 183.416 229.688 183.152C230.544 182.888 235.928 179.08 235.928 179.08L249.24 177.968L248.384 171.664Z" fill="#E4897B"/>
<path d="M263.312 128.288C263.312 128.288 257.44 129.848 258.272 140.744C258.64 145.48 258.824 150.536 258.92 154.744C258.978 157.559 258.234 160.333 256.775 162.741C255.316 165.149 253.202 167.092 250.68 168.344L239.208 173.032L240.688 180.232C240.688 180.232 257.36 178.704 263.224 174.016C269.088 169.328 271.128 159.32 270.176 151.024C268.848 139.504 269.288 127.824 263.312 128.288Z" fill="#FFC100"/>
<path opacity="0.1" d="M263.312 128.288C263.312 128.288 257.44 129.848 258.272 140.744C258.64 145.48 258.824 150.536 258.92 154.744C258.978 157.559 258.234 160.333 256.775 162.741C255.316 165.149 253.202 167.092 250.68 168.344L239.208 173.032L240.688 180.232C240.688 180.232 257.36 178.704 263.224 174.016C269.088 169.328 271.128 159.32 270.176 151.024C268.848 139.504 269.288 127.824 263.312 128.288Z" fill="black"/>
<path d="M240.296 171.208L241.272 181.224L238.576 181.48L237.144 172.104L240.296 171.208Z" fill="#FFC100"/>
<path opacity="0.6" d="M240.296 171.208L241.272 181.224L238.576 181.48L237.144 172.104L240.296 171.208Z" fill="white"/>
<path opacity="0.4" d="M254.396 143.7L245.097 144.532L245.23 146.014L254.529 145.182L254.396 143.7Z" fill="white"/>
<path d="M242.232 126.968L245.24 130.968L251.584 126.784V126.4C251.599 126.064 251.535 125.73 251.395 125.424C251.256 125.118 251.047 124.849 250.784 124.64C250.481 124.453 250.136 124.343 249.781 124.32C249.425 124.296 249.07 124.359 248.744 124.504L242.232 126.968Z" fill="#FFC100"/>
<path d="M238 127.288L238.744 126.056C239.68 124.952 240.424 125.52 240.424 125.52L242.232 126.968L239.592 130.968L238 127.288Z" fill="#FFC100"/>
<path opacity="0.6" d="M242.232 126.968L245.24 130.968L251.584 126.784V126.4C251.599 126.064 251.535 125.73 251.395 125.424C251.256 125.118 251.047 124.849 250.784 124.64C250.481 124.453 250.136 124.343 249.781 124.32C249.425 124.296 249.07 124.359 248.744 124.504L242.232 126.968Z" fill="white"/>
<path opacity="0.6" d="M238 127.288L238.744 126.056C239.68 124.952 240.424 125.52 240.424 125.52L242.232 126.968L239.592 130.968L238 127.288Z" fill="white"/>
<path d="M252.712 106.96C253.136 104.224 251.24 103.848 249.992 104.176C248.744 104.504 247.392 106.488 247.392 106.488C246.176 104.52 245.488 99.536 245.488 99.536C243.942 100.39 242.219 100.874 240.455 100.949C238.69 101.024 236.933 100.688 235.32 99.968C234.698 101.649 233.536 103.075 232.016 104.024C232.016 104.024 229.76 102.992 231.016 97.808C232.44 91.912 241.296 86.208 250.216 92.088C259.136 97.968 253.736 108.888 253.736 108.888C253.736 108.888 251.712 112.464 249.92 113.808C250.072 112.747 250.072 111.669 249.92 110.608C250.647 110.273 251.281 109.766 251.768 109.13C252.255 108.494 252.579 107.749 252.712 106.96Z" fill="#2E353A"/>
<path d="M234.264 98.504C234.78 99.1343 235.378 99.6937 236.04 100.168C236.715 100.649 237.446 101.047 238.216 101.352C238.986 101.655 239.793 101.852 240.616 101.936C241.459 102.016 242.308 101.992 243.144 101.864C242.313 102.058 241.461 102.15 240.608 102.136C239.743 102.12 238.883 101.983 238.056 101.728C237.213 101.48 236.406 101.122 235.656 100.664C234.894 100.208 234.197 99.6507 233.584 99.008L234.264 98.504Z" fill="#2E353A"/>
<path d="M337.136 143.712C330.656 137.92 323.088 145.776 323.088 145.776C323.088 145.776 315.512 137.92 309.04 143.712C299.808 151.976 313.232 166.776 323.088 169.736C332.944 166.776 346.368 152 337.136 143.712Z" fill="#FFC100"/>
<path opacity="0.6" d="M337.136 143.712C330.656 137.92 323.088 145.776 323.088 145.776C323.088 145.776 315.512 137.92 309.04 143.712C299.808 151.976 313.232 166.776 323.088 169.736C332.944 166.776 346.368 152 337.136 143.712Z" fill="white"/>
<path d="M206.336 66.672C199.856 60.88 192.288 68.736 192.288 68.736C192.288 68.736 184.712 60.88 178.24 66.672C169.008 74.928 182.432 89.728 192.288 92.696C202.144 89.728 215.568 74.928 206.336 66.672Z" fill="#FFC100"/>
<path opacity="0.6" d="M206.336 66.672C199.856 60.88 192.288 68.736 192.288 68.736C192.288 68.736 184.712 60.88 178.24 66.672C169.008 74.928 182.432 89.728 192.288 92.696C202.144 89.728 215.568 74.928 206.336 66.672Z" fill="white"/>
<path d="M282.472 90.7199C279.824 88.3199 276.728 91.5679 276.728 91.5679C276.728 91.5679 273.64 88.3679 270.992 90.7199C267.216 94.0959 272.704 100.144 276.728 101.36C280.76 100.144 286.24 94.0959 282.472 90.7199Z" fill="#FFC100"/>
<path opacity="0.6" d="M282.472 90.7199C279.824 88.3199 276.728 91.5679 276.728 91.5679C276.728 91.5679 273.64 88.3679 270.992 90.7199C267.216 94.0959 272.704 100.144 276.728 101.36C280.76 100.144 286.24 94.0959 282.472 90.7199Z" fill="white"/>
<path d="M40.576 154.288C37.928 151.888 34.84 155.136 34.84 155.136C34.84 155.136 31.744 151.936 29.096 154.288C25.328 157.664 30.808 163.712 34.84 164.92C38.864 163.712 44.352 157.664 40.576 154.288Z" fill="#FFC100"/>
<path opacity="0.6" d="M40.576 154.288C37.928 151.888 34.84 155.136 34.84 155.136C34.84 155.136 31.744 151.936 29.096 154.288C25.328 157.664 30.808 163.712 34.84 164.92C38.864 163.712 44.352 157.664 40.576 154.288Z" fill="white"/>
</svg>
