<svg width="39" height="39" viewBox="0 0 39 39" fill="none" xmlns="http://www.w3.org/2000/svg">
<g id="Frame">
<path id="Vector" d="M30 29.1984L23 23.1799M25.3333 18.1645C25.3333 19.0866 25.1221 19.9996 24.7117 20.8515C24.3013 21.7034 23.6997 22.4775 22.9414 23.1295C22.183 23.7815 21.2827 24.2987 20.2919 24.6516C19.3011 25.0044 18.2391 25.1861 17.1667 25.1861C16.0942 25.1861 15.0322 25.0044 14.0414 24.6516C13.0506 24.2987 12.1503 23.7815 11.392 23.1295C10.6336 22.4775 10.0321 21.7034 9.62165 20.8515C9.21124 19.9996 9 19.0866 9 18.1645C9 16.3022 9.86041 14.5162 11.392 13.1994C12.9235 11.8826 15.0007 11.1429 17.1667 11.1429C19.3326 11.1429 21.4098 11.8826 22.9414 13.1994C24.4729 14.5162 25.3333 16.3022 25.3333 18.1645Z" stroke="#B9C6CC" stroke-width="2" stroke-linecap="round" stroke-linejoin="round"/>
</g>
</svg>
