<svg width="8" height="31" viewBox="0 0 8 31" fill="none" xmlns="http://www.w3.org/2000/svg">
<path d="M0.257507 27.25C0.257507 26.7575 0.354504 26.2699 0.542959 25.8149C0.731414 25.36 1.00764 24.9466 1.35586 24.5983C1.70408 24.2501 2.11747 23.9739 2.57244 23.7854C3.02742 23.597 3.51505 23.5 4.00751 23.5C4.49996 23.5 4.9876 23.597 5.44257 23.7854C5.89754 23.9739 6.31094 24.2501 6.65916 24.5983C7.00738 24.9466 7.2836 25.36 7.47206 25.8149C7.66051 26.2699 7.75751 26.7575 7.75751 27.25C7.75751 28.2446 7.36242 29.1984 6.65916 29.9016C5.9559 30.6049 5.00207 31 4.00751 31C3.01295 31 2.05912 30.6049 1.35586 29.9016C0.652596 29.1984 0.257507 28.2446 0.257507 27.25ZM0.625008 4.73125C0.57507 4.25815 0.625153 3.77984 0.772009 3.32735C0.918864 2.87486 1.15921 2.4583 1.47745 2.1047C1.7957 1.7511 2.18473 1.46835 2.6193 1.27481C3.05387 1.08126 3.52428 0.981247 4.00001 0.981247C4.47573 0.981247 4.94614 1.08126 5.38072 1.27481C5.81529 1.46835 6.20432 1.7511 6.52256 2.1047C6.8408 2.4583 7.08115 2.87486 7.22801 3.32735C7.37486 3.77984 7.42494 4.25815 7.37501 4.73125L6.06251 17.8825C6.00918 18.3924 5.76889 18.8644 5.38801 19.2075C5.00713 19.5506 4.51265 19.7405 4.00001 19.7405C3.48736 19.7405 2.99289 19.5506 2.61201 19.2075C2.23112 18.8644 1.99083 18.3924 1.93751 17.8825L0.625008 4.73125Z" fill="#FB7B05"/>
</svg>
